<svg width="31" height="24" viewBox="0 0 31 24" fill="none" xmlns="http://www.w3.org/2000/svg">
<g clip-path="url(#clip0_23_58)">
<path fill-rule="evenodd" clip-rule="evenodd" d="M15.635 3.76918C17.6123 1.96379 18.9972 0.402717 22.0434 0.0978546C27.7629 -0.477276 33.0234 4.65134 30.1352 9.69995C29.5946 10.6448 28.6887 11.7043 27.6074 12.7961V12.6643H20.5795H20.2068L19.9451 12.9021L18.7627 13.9702L16.3238 9.8686L15.5141 8.50644L14.739 9.88373L12.5296 13.8102L10.34 11.0275L9.56986 10.0502L8.85645 11.0621L7.82954 12.5151H3.322C1.78904 10.6708 0.712763 8.67941 0.623896 6.52808C0.463442 2.59297 4.00826 0.0719088 8.08627 0.119476C11.7298 0.160557 13.2628 1.74757 15.635 3.76918ZM26.1214 14.221C26.0103 14.3226 25.8992 14.4242 25.7881 14.5259C23.7565 16.368 21.5077 18.1734 19.9328 19.542L15.6375 23.2739L12.0878 20.2815C9.92533 18.4566 7.0717 16.394 4.75375 14.0718H8.32078H8.81202L9.07368 13.6999L9.64638 12.887L11.9248 15.7821L12.7814 16.8718L13.4479 15.6848L15.5486 11.9486L17.7432 15.6437L18.3109 16.5994L19.1675 15.8253L20.9449 14.221H26.1214Z" fill="black"/>
</g>
<defs>
<clipPath id="clip0_23_58">
<rect width="30.3333" height="23.2236" fill="white" transform="translate(0.619019 0.0522461)"/>
</clipPath>
</defs>
</svg>
