<svg width="39" height="22" viewBox="0 0 39 22" fill="none" xmlns="http://www.w3.org/2000/svg">
<g clip-path="url(#clip0_23_53)">
<path d="M22.3976 2.87607C20.7725 2.19323 18.968 1.91576 17.1783 2.07349C15.4046 2.21627 13.7129 2.80162 12.2995 3.76167C10.5208 5.00995 9.32863 6.79903 8.95425 8.78194L8.80432 9.47659L8.02346 9.59836C7.32391 9.70138 6.63757 9.86546 5.97447 10.0882C5.42019 10.2728 4.89524 10.5202 4.41275 10.8244C4.06521 11.0471 3.75043 11.3074 3.47571 11.5993C2.68189 12.4653 2.26122 13.5531 2.2888 14.6684C2.30227 15.8148 2.71578 16.9295 3.47259 17.8594C3.75656 18.2079 4.08808 18.5239 4.4596 18.8003C4.84764 19.086 5.28266 19.3174 5.74959 19.4867C6.25971 19.6693 6.79392 19.7939 7.33942 19.8575H30.0001C31.0131 19.6547 31.9904 19.3307 32.9049 18.8944C33.6819 18.5257 34.3621 18.0155 34.9007 17.3972C35.6816 16.4756 36.0658 15.1832 36.0814 13.8354C36.1293 12.4881 35.7401 11.1569 34.9601 9.99965C34.7529 9.71521 34.5177 9.44756 34.2573 9.19983C33.742 8.70213 33.114 8.30635 32.4143 8.03835C31.7147 7.77034 30.959 7.63613 30.1968 7.64449C29.3934 7.6448 28.5952 7.75878 27.8324 7.98213C26.2363 5.98399 25.0556 4.00798 22.3976 2.87607ZM12.9117 12.2358C12.678 12.2295 12.4466 12.2773 12.2401 12.3743C12.0337 12.4714 11.8593 12.6144 11.7341 12.7893C11.4236 13.2434 11.2755 13.7702 11.3093 14.3004C11.3093 15.6343 11.883 16.3013 13.0303 16.3013C13.3708 16.3025 13.7096 16.2596 14.0361 16.174C14.3484 16.0882 14.6889 15.9858 15.0169 15.8668V17.436C14.3193 17.704 13.5658 17.8389 12.8055 17.8317C11.6248 17.8317 10.719 17.5282 10.0881 16.9212C9.45712 16.3142 9.14478 15.436 9.15102 14.2865C9.13455 13.6327 9.29071 12.9845 9.60705 12.3935C9.89438 11.8679 10.3537 11.431 10.9251 11.1399C11.5425 10.8363 12.2402 10.6844 12.946 10.6998C13.785 10.699 14.6134 10.8655 15.3698 11.1869L14.7108 12.662C14.4293 12.5443 14.1392 12.4435 13.8424 12.3603C13.5395 12.275 13.2232 12.233 12.9054 12.2358H12.9117ZM23.4408 14.2588C23.4408 15.4267 23.118 16.3142 22.4725 16.9212C21.827 17.5282 20.8806 17.8317 19.6333 17.8317C18.4068 17.8317 17.4698 17.5264 16.8222 16.9157C16.1746 16.305 15.8477 15.4166 15.8415 14.2505C15.8415 13.0956 16.1673 12.2137 16.8191 11.6048C17.4709 10.996 18.4183 10.6915 19.6614 10.6915C20.9108 10.6915 21.8551 10.9941 22.4944 11.5993C23.1337 12.2044 23.4543 13.091 23.4564 14.2588H23.4408ZM18.056 14.2588C18.056 15.6002 18.5766 16.2708 19.6177 16.2708C19.8502 16.2871 20.0836 16.2501 20.2953 16.1634C20.507 16.0766 20.6899 15.943 20.8265 15.7754C21.0868 15.4526 21.2159 14.9452 21.2138 14.2533C21.2117 13.5614 21.0805 13.0541 20.8202 12.7312C20.6881 12.567 20.5109 12.4354 20.3054 12.3488C20.0999 12.2621 19.8729 12.2232 19.6458 12.2358C18.5838 12.2358 18.0539 12.912 18.056 14.2644V14.2588ZM29.5878 17.7348H23.9062V16.5033L25.8178 14.7902C26.3654 14.2847 26.7225 13.9387 26.8891 13.7524C27.0282 13.6107 27.1458 13.4534 27.2389 13.2847C27.3045 13.153 27.3385 13.0107 27.3389 12.8668C27.3425 12.7874 27.3268 12.7082 27.2929 12.6347C27.2589 12.5612 27.2075 12.495 27.1421 12.4406C26.9844 12.3281 26.785 12.2718 26.583 12.2828C26.32 12.2876 26.0629 12.3524 25.8365 12.471C25.5347 12.6256 25.2502 12.8054 24.9869 13.0079L23.825 11.8041C24.1362 11.5449 24.4775 11.3158 24.8432 11.1205C25.1233 10.9795 25.4239 10.8734 25.7365 10.805C26.0942 10.7272 26.4615 10.69 26.8298 10.6943C27.2956 10.6875 27.7576 10.7686 28.1853 10.9323C28.5652 11.0717 28.8909 11.3064 29.1224 11.6076C29.343 11.8986 29.4585 12.2422 29.4535 12.5928C29.4551 12.8473 29.4162 13.1007 29.3379 13.3456C29.2549 13.5867 29.1351 13.8167 28.9818 14.0291C28.7993 14.2805 28.5901 14.5159 28.3571 14.7321C28.0927 14.9812 27.5263 15.4498 26.658 16.138V16.185H29.619V17.7293L29.5878 17.7348ZM28.7351 5.71554C29.2297 5.64534 29.7302 5.61201 30.2312 5.61591C31.3058 5.60944 32.37 5.8032 33.3547 6.18462C34.3394 6.56603 35.2226 7.12658 35.9471 7.82992C36.2932 8.16569 36.6066 8.52674 36.8841 8.90925C37.9055 10.4022 38.4226 12.1233 38.374 13.8686C38.3522 15.6149 37.8212 17.3529 36.7342 18.6315C36.0077 19.4698 35.0917 20.1644 34.0449 20.6712C32.8942 21.2195 31.6618 21.621 30.3842 21.864L30.1281 21.8916H7.30194H7.15826C6.37652 21.8087 5.61076 21.6338 4.88127 21.3714C4.19719 21.1239 3.5599 20.7851 2.99158 20.3667C2.47363 19.984 2.01192 19.5451 1.61726 19.0605C0.576221 17.7809 0.010727 16.2458 -0.000685633 14.6684C-0.030232 13.074 0.580864 11.5223 1.72346 10.2902C2.1213 9.87247 2.57672 9.50056 3.07904 9.18323C3.71972 8.77797 4.41682 8.44774 5.15301 8.20076C5.71204 8.00586 6.28615 7.84678 6.8709 7.72475C7.46321 5.51489 8.88633 3.5493 10.9064 2.15098C12.6639 0.957346 14.7669 0.229071 16.9721 0.0504387C19.1742 -0.140939 21.3934 0.203527 23.3908 1.04674C25.7102 2.03113 27.5914 3.67456 28.7351 5.71554Z" fill="black"/>
</g>
<defs>
<clipPath id="clip0_23_53">
<rect width="38.381" height="21.8966" fill="white"/>
</clipPath>
</defs>
</svg>
