<svg width="27" height="28" viewBox="0 0 27 28" fill="none" xmlns="http://www.w3.org/2000/svg">
<path fill-rule="evenodd" clip-rule="evenodd" d="M19.1566 17.7739C19.7283 20.0958 19.248 22.3896 16.7213 24.6079C14.8394 26.2473 12.5999 27.0724 9.98708 27.0724C7.38212 27.0724 5.1478 26.2473 3.26586 24.6079C1.74152 23.2752 0.963684 21.9123 0.710497 20.5278H3.18756L3.76441 19.4219L6.75306 23.3378L9.26406 18.437L11.9917 23.0225L14.5236 20.5429H15.5207V19.2988H13.8293L12.3258 20.7718L9.16487 15.4584L6.49466 20.6725L3.51905 16.7738L2.20874 19.2836H0.619141C0.74965 14.9011 5.43492 10.3653 7.90154 6.06271C11.7516 -0.842584 8.44707 -1.23569 11.3209 4.6242C9.95575 6.01303 9.13877 7.78202 9.13877 9.71084C9.13877 11.9377 10.2298 13.9551 11.9943 15.4152C13.7588 16.8753 16.1941 17.7782 18.8878 17.7782C18.9765 17.7782 19.0679 17.776 19.1566 17.7739ZM19.5064 9.14493C19.9162 9.32853 20.1955 9.68708 20.1955 10.1018C20.1955 10.7001 19.6082 11.1861 18.8852 11.1861C18.1622 11.1861 17.5749 10.7001 17.5749 10.1018C17.5749 9.68924 17.8542 9.32853 18.2666 9.14493V6.84893C18.2666 6.56598 18.5432 6.33486 18.8878 6.33486C19.2297 6.33486 19.509 6.56382 19.509 6.84893V9.14493H19.5064Z" fill="#D8453E"/>
<path d="M22.8159 4.17277C23.3771 4.45788 23.8913 4.80563 24.3533 5.18578C25.7523 6.3435 26.6189 7.94401 26.6189 9.71083C26.6189 11.4777 25.755 13.0782 24.3533 14.2359C22.9542 15.3936 21.0201 16.1107 18.885 16.1107C16.7498 16.1107 14.8183 15.3936 13.4166 14.2359C12.0176 13.0782 11.151 11.4777 11.151 9.71083C11.151 7.94401 12.015 6.34566 13.4166 5.18794C13.8969 4.79051 14.4372 4.42764 15.0297 4.13605C17.2823 3.03017 20.5816 3.04097 22.8159 4.17277ZM19.5532 4.36933V5.15554H18.2168V4.36933C16.6898 4.49892 15.3221 5.06482 14.2963 5.91368C13.2626 6.76901 12.5762 7.91377 12.4248 9.18597H13.3462V10.2919H12.4326C12.5944 11.5425 13.2757 12.6656 14.2963 13.5102C15.3221 14.359 16.6924 14.9271 18.2168 15.0545V14.3223H19.5532V15.0545C21.0801 14.9249 22.4479 14.359 23.4763 13.5102C24.4942 12.6678 25.1781 11.5446 25.3399 10.2919H24.4264V9.18597H25.3478C25.199 7.91161 24.5125 6.76901 23.4789 5.91368C22.4479 5.06482 21.0775 4.49892 19.5532 4.36933Z" fill="#393939"/>
</svg>
