<svg width="39" height="28" viewBox="0 0 39 28" fill="none" xmlns="http://www.w3.org/2000/svg">
<g clip-path="url(#clip0_23_55)">
<path fill-rule="evenodd" clip-rule="evenodd" d="M14.357 0.483759C15.4822 3.56134 17.8922 6.31461 20.4193 8.80707C20.7955 8.4442 21.193 8.07226 21.6012 7.69351C23.8692 5.57527 26.4531 3.15992 27.4576 0.377166C27.5499 0.116354 27.9545 -0.0446695 28.3627 0.0142968C28.6537 0.0573875 28.8667 0.200267 28.9306 0.374898C29.9421 3.14404 32.5225 5.55939 34.7905 7.67991C37.0443 9.78908 39.0035 11.6238 39.0035 13.3679C39.0035 16.6042 36.1889 18.6794 32.5899 19.5888C31.337 19.9063 29.9883 20.0787 28.6324 20.1082C26.7726 30.84 0 30.4431 0 18.913C0 14.1957 11.4679 8.47368 14.357 0.483759ZM21.3244 9.68476C25.0476 13.2431 28.7318 16.2527 28.7318 18.913C28.7318 18.9901 28.7247 19.0627 28.7247 19.1375C29.8605 19.1012 30.9856 18.9538 32.0291 18.6885C35.0922 17.9151 37.4844 16.1416 37.4844 13.3679C37.4844 11.9209 35.6494 10.2018 33.5376 8.22421C31.6245 6.43254 29.4949 4.43903 28.1923 2.1643C26.8932 4.45264 24.7601 6.44615 22.8435 8.23555C22.3146 8.7345 21.7964 9.21757 21.3244 9.68476ZM5.61149 17.5726C5.5405 17.0601 6.12969 16.6088 6.93183 16.5611C7.73398 16.5135 8.4403 16.8922 8.51483 17.4048C8.69585 18.6431 9.11822 19.7816 9.93102 20.7659C10.7154 21.7161 11.876 22.5326 13.5584 23.1631C14.2541 23.4216 14.4848 23.9931 14.0802 24.4354C13.672 24.8799 12.7811 25.0273 12.089 24.7688C9.89907 23.9478 8.37996 22.8819 7.3542 21.6345C6.3462 20.4189 5.82799 19.0445 5.61149 17.5726Z" fill="black"/>
</g>
<defs>
<clipPath id="clip0_23_55">
<rect width="39" height="27.8683" fill="white"/>
</clipPath>
</defs>
</svg>
