<svg width="27" height="27" viewBox="0 0 27 27" fill="none" xmlns="http://www.w3.org/2000/svg">
<g clip-path="url(#clip0_301_2)">
<path d="M10.897 23.0941L11.1083 23.558C10.9733 23.6488 10.822 23.723 10.7401 23.8614C10.7757 24.028 11.0603 24.092 11.1023 24.2659C10.9905 24.3661 10.8217 24.4055 10.7159 24.5454C10.8044 24.6604 10.9364 24.8399 11.0721 24.9082C10.9291 24.9804 10.8926 25.0398 10.8065 25.2175C10.8823 25.2773 11.0184 25.4281 11.1566 25.5327C11.3335 25.7028 11.7663 26.1275 11.7663 26.1275C11.7687 26.1468 11.8573 26.1696 11.9776 26.187L12.4424 26.6866C12.8577 26.8332 13.2558 26.8439 13.7643 26.7104L14.2835 26.1692C14.3553 26.1546 14.425 26.1409 14.4766 26.1216C14.7605 25.9219 14.8499 25.7746 15.1104 25.503C15.2025 25.4315 15.3319 25.1686 15.3881 25.0867C15.2843 24.932 15.2835 24.9364 15.1708 24.8488C15.2426 24.7448 15.4679 24.6948 15.5028 24.5097L15.1648 24.2421C15.2062 24.0862 15.4479 23.9994 15.4907 23.8436C15.4488 23.7087 15.2535 23.6347 15.1587 23.5343L15.2795 23.0941H10.8971H10.897Z" fill="white" stroke="black" stroke-width="2" stroke-linecap="round" stroke-linejoin="round"/>
<path d="M13.0169 7.26379C9.71054 7.26379 6.84674 9.99374 7.02994 13.3506C6.93156 14.2247 8.05346 16.3284 9.04794 17.5085C10.3967 19.8987 10.5259 20.1838 10.6149 22.7918C10.6835 23.1036 10.844 23.1997 11.0087 23.2356C12.7443 23.5686 14.0861 23.3803 15.1199 23.2546C15.3685 23.1728 15.5184 23.0175 15.501 22.8046C15.6001 19.262 16.1497 19.4772 17.7992 16.7516C18.7126 15.5215 19.05 13.7096 19.0581 12.8678C19.1556 8.17642 14.7939 7.31426 13.0167 7.26361L13.0169 7.26379Z" fill="white" stroke="black" stroke-width="2" stroke-linecap="round" stroke-linejoin="round"/>
<path d="M12.5989 0.197021L12.3989 5.32074Z" fill="white"/>
<path d="M12.5989 0.197021L12.3989 5.32074" stroke="black" stroke-width="2" stroke-linecap="round" stroke-linejoin="round"/>
<path d="M3.599 3.15302L7.199 7.48847Z" fill="white"/>
<path d="M3.599 3.15302L7.199 7.48847" stroke="black" stroke-width="2" stroke-linecap="round" stroke-linejoin="round"/>
<path d="M0.198975 10.8386L5.39897 11.8239Z" fill="white"/>
<path d="M0.198975 10.8386L5.39897 11.8239" stroke="black" stroke-width="2" stroke-linecap="round" stroke-linejoin="round"/>
<path d="M18.3989 7.68551L21.3989 2.16766Z" fill="white"/>
<path d="M18.3989 7.68551L21.3989 2.16766" stroke="black" stroke-width="2" stroke-linecap="round" stroke-linejoin="round"/>
<path d="M21.3989 12.4151L26.7989 12.218Z" fill="white"/>
<path d="M21.3989 12.4151L26.7989 12.218" stroke="black" stroke-width="2" stroke-linecap="round" stroke-linejoin="round"/>
<path d="M20.199 17.7359L23.599 20.4948Z" fill="white"/>
<path d="M20.199 17.7359L23.599 20.4948" stroke="black" stroke-width="2" stroke-linecap="round" stroke-linejoin="round"/>
<path d="M6.59893 17.1447L2.39893 19.7066Z" fill="white"/>
<path d="M6.59893 17.1447L2.39893 19.7066" stroke="black" stroke-width="2" stroke-linecap="round" stroke-linejoin="round"/>
</g>
<defs>
<clipPath id="clip0_301_2">
<rect width="27" height="27" fill="white"/>
</clipPath>
</defs>
</svg>
