<svg width="25" height="29" viewBox="0 0 25 29" fill="none" xmlns="http://www.w3.org/2000/svg">
<path d="M24.4264 11.8938L21.653 8.87928C21.4657 8.67592 21.2109 8.51085 20.9115 8.40051C20.9115 8.40051 14.6793 5.92297 13.5762 5.78755C12.2028 5.6189 11.4335 5.9784 10.5666 6.24538C9.52317 6.5667 6.38869 7.36124 6.38869 7.36124L3.22168 5.3916C2.39611 4.87874 1.1617 4.95355 0.463515 5.55898C-0.234512 6.16441 -0.132672 7.07044 0.691554 7.58336L4.69678 10.0738C5.05605 10.2968 5.50576 10.4142 5.96184 10.4142C6.16827 10.4142 6.37588 10.3903 6.57713 10.3413L8.89091 9.77863L7.95173 14.8673C7.90969 15.0948 7.79622 15.738 8.01923 16.2652L10.2333 21.4762L8.45872 26.43C8.13765 27.3249 8.8664 28.2412 10.0856 28.4764C10.2804 28.5142 10.4753 28.532 10.6677 28.532C11.6805 28.532 12.6053 28.0341 12.8741 27.2819L14.8156 21.8628C14.9252 21.5589 14.915 21.2382 14.7876 20.9381L13.67 18.3075L16.2093 19.1414L15.1266 23.054C14.8756 23.961 15.673 24.8456 16.9088 25.0298C17.0629 25.0527 17.2158 25.0639 17.3661 25.0639C18.4285 25.0639 19.3814 24.5159 19.6005 23.7216L21.0477 18.4938C21.2604 17.7252 20.719 16.951 19.7432 16.6307L15.7653 15.3245L16.7349 10.0717L18.6947 10.7971L21.1828 13.5012C21.5611 13.9122 22.1777 14.1338 22.8057 14.1338C23.1828 14.1338 23.5637 14.0543 23.9 13.8878C24.7958 13.4437 25.0314 12.5512 24.4264 11.8938Z" fill="black"/>
<path d="M16.2655 5.47846C18.3038 5.15264 19.5943 3.67659 19.1511 2.18197C18.7078 0.686833 16.6962 -0.261768 14.6591 0.0641026C12.6222 0.389915 11.3317 1.86539 11.7736 3.36059C12.2184 4.85573 14.2286 5.80375 16.2655 5.47846Z" fill="black"/>
</svg>
