<svg width="30" height="22" viewBox="0 0 30 22" fill="none" xmlns="http://www.w3.org/2000/svg">
<g clip-path="url(#clip0_23_48)">
<path d="M3.12055 5.17505H9.02296L14.0517 0.227088C14.2009 0.0833347 14.4019 0.00274658 14.6114 0.00274658C14.8208 0.00274658 15.0219 0.0833347 15.171 0.227088C15.2455 0.299424 15.3043 0.385609 15.3441 0.480554C15.3839 0.575499 15.4039 0.677279 15.4028 0.779883V0.779883V21.1155C15.4022 21.2709 15.3543 21.4227 15.2653 21.5514C15.1763 21.6802 15.0501 21.7802 14.9028 21.8387C14.7555 21.8973 14.5938 21.9117 14.4381 21.8801C14.2824 21.8485 14.1399 21.7724 14.0285 21.6615L9.06468 17.5563H3.12055C2.44448 17.5563 1.79609 17.2937 1.31804 16.8264C0.83998 16.359 0.571411 15.7251 0.571411 15.0642V7.6649C0.571411 7.00395 0.83998 6.37007 1.31804 5.90271C1.79609 5.43535 2.44448 5.17279 3.12055 5.17279V5.17505ZM18.2115 8.57338C18.1717 8.4805 18.152 8.38057 18.1536 8.27988C18.1553 8.17919 18.1782 8.07992 18.221 7.98833C18.2639 7.89674 18.3256 7.81481 18.4024 7.7477C18.4792 7.68058 18.5694 7.62974 18.6672 7.59836C18.7651 7.56699 18.8686 7.55577 18.9711 7.5654C19.0737 7.57504 19.173 7.60532 19.263 7.65435C19.353 7.70337 19.4316 7.77008 19.4939 7.85027C19.5562 7.93045 19.6009 8.02238 19.6251 8.12027C19.9039 9.09808 20.0259 10.1123 19.9866 11.1267C19.9657 12.2051 19.8058 13.2653 19.493 13.8929C19.4527 13.9836 19.3941 14.0653 19.3207 14.1332C19.2472 14.2012 19.1604 14.2538 19.0656 14.2881C18.9707 14.3223 18.8698 14.3374 18.7688 14.3325C18.6678 14.3275 18.5689 14.3026 18.4781 14.2593C18.3872 14.2159 18.3063 14.155 18.2401 14.0803C18.174 14.0055 18.1241 13.9184 18.0933 13.8243C18.0625 13.7301 18.0516 13.6308 18.0611 13.5324C18.0707 13.434 18.1005 13.3386 18.1489 13.2517C18.3644 12.8168 18.4803 11.9853 18.4965 11.104C18.5322 10.255 18.4361 9.40558 18.2115 8.58471V8.57338ZM22.0676 5.85472C21.9914 5.67446 21.9915 5.47199 22.068 5.29184C22.1445 5.11169 22.2911 4.96863 22.4755 4.89412C22.6598 4.81962 22.867 4.81977 23.0512 4.89455C23.2355 4.96933 23.3818 5.1126 23.458 5.29286C24.1533 6.91953 24.5264 8.96985 24.5588 11.0066C24.5912 13.0433 24.2877 15.0211 23.6318 16.6184C23.5953 16.7076 23.5412 16.789 23.4725 16.8578C23.4038 16.9266 23.322 16.9815 23.2316 17.0193C23.1412 17.0572 23.0441 17.0773 22.9458 17.0785C22.8474 17.0796 22.7498 17.0619 22.6585 17.0262C22.5672 16.9905 22.484 16.9375 22.4137 16.8704C22.3433 16.8032 22.2871 16.7232 22.2484 16.6348C22.2097 16.5465 22.1891 16.4515 22.1879 16.3554C22.1867 16.2593 22.2049 16.1639 22.2414 16.0746C22.8184 14.6451 23.0849 12.8371 23.0502 11.0111C23.0154 9.18508 22.684 7.30467 22.0583 5.84339L22.0676 5.85472ZM25.7963 3.53706C25.7537 3.45078 25.7289 3.35714 25.7233 3.26149C25.7177 3.16584 25.7314 3.07005 25.7637 2.97958C25.796 2.88912 25.8462 2.80576 25.9114 2.73426C25.9767 2.66276 26.0557 2.60452 26.1439 2.56287C26.2322 2.52122 26.3279 2.49697 26.4258 2.49151C26.5236 2.48604 26.6216 2.49947 26.7141 2.53103C26.901 2.59476 27.0543 2.72846 27.1404 2.90271C28.3834 5.48611 29.035 8.30348 29.0499 11.1584C29.0708 13.9269 28.5007 16.6841 27.2586 19.0357C27.1664 19.2078 27.008 19.3371 26.8183 19.3951C26.6286 19.4531 26.4231 19.4351 26.247 19.3449C26.0709 19.2548 25.9387 19.1 25.8794 18.9145C25.82 18.7291 25.8385 18.5282 25.9307 18.356C27.0616 16.2196 27.5784 13.6981 27.5529 11.1584C27.5413 8.51914 26.9402 5.91424 25.7917 3.52573L25.7963 3.53706ZM9.35203 6.73828H3.12055C2.86915 6.73888 2.62818 6.83662 2.45019 7.0102C2.27221 7.18378 2.17164 7.41912 2.17042 7.6649V15.0687C2.17164 15.3145 2.27221 15.5498 2.45019 15.7234C2.62818 15.897 2.86915 15.9947 3.12055 15.9953H9.35435C9.35435 15.9953 9.81783 16.1517 9.8665 16.1834L13.8177 19.439V2.67388L9.96151 6.46415C9.8862 6.55017 9.79272 6.61921 9.68751 6.66653C9.5823 6.71385 9.46785 6.73833 9.35203 6.73828V6.73828Z" fill="black"/>
</g>
<defs>
<clipPath id="clip0_23_48">
<rect width="28.4762" height="21.8966" fill="white" transform="translate(0.571411)"/>
</clipPath>
</defs>
</svg>
