<svg width="26" height="28" viewBox="0 0 26 28" fill="none" xmlns="http://www.w3.org/2000/svg">
<g clip-path="url(#clip0_23_67)">
<path fill-rule="evenodd" clip-rule="evenodd" d="M25.619 27.9321H18.7373C18.8159 26.9041 19.0557 25.9371 19.4567 25.0311C19.8557 24.1221 20.6053 23.0545 21.7056 21.8191C22.3786 21.0626 22.8079 20.4891 22.9973 20.0987C23.1847 19.7052 23.2794 19.333 23.2794 18.9822C23.2794 18.6009 23.1867 18.2745 23.0013 18.0061C22.8139 17.7346 22.5801 17.6004 22.298 17.6004C22.0058 17.6004 21.766 17.7407 21.5806 18.0183C21.3932 18.302 21.2703 18.7931 21.2058 19.5008L18.9106 19.2202C19.0013 18.241 19.1665 17.4784 19.4063 16.9293C19.6461 16.3802 19.9847 15.9593 20.4199 15.6665C20.8572 15.3736 21.4638 15.2272 22.2356 15.2272C23.0416 15.2272 23.6683 15.3675 24.1177 15.6451C24.565 15.9196 24.9177 16.3497 25.1736 16.9263C25.4316 17.5058 25.5605 18.1495 25.5605 18.8663C25.5605 19.6259 25.4134 20.3519 25.1192 21.0473C24.825 21.7398 24.289 22.5024 23.5111 23.329C23.0497 23.811 22.7414 24.1526 22.5842 24.3448C22.429 24.54 22.2456 24.7902 22.034 25.1044H25.6169V27.9321H25.619ZM0.857056 12.6252C0.857056 8.66582 1.58452 5.57882 3.04549 3.37644C4.50444 1.16491 6.53367 0.0637207 9.13924 0.0637207C11.8073 0.0637207 13.8647 1.14966 15.3096 3.31238C16.7544 5.48121 17.4738 8.52245 17.4738 12.4269C17.4738 15.2638 17.1594 17.5851 16.5287 19.4001C15.898 21.2151 14.9831 22.6274 13.7922 23.6371C12.5972 24.6498 11.112 25.1501 9.33067 25.1501C7.5231 25.1501 6.02788 24.717 4.84097 23.8445C3.65808 22.9691 2.69485 21.5903 1.95933 19.7021C1.22582 17.8231 0.857056 15.4621 0.857056 12.6252ZM5.80621 12.6405C5.80621 15.0869 6.10848 16.85 6.70899 17.9176C7.31353 18.9853 8.1357 19.5221 9.17148 19.5221C10.2355 19.5221 11.0637 18.9975 11.6461 17.9512C12.2325 16.9019 12.5226 15.0228 12.5226 12.308C12.5226 10.0263 12.2163 8.35773 11.6078 7.30839C10.9952 6.25296 10.171 5.72524 9.12513 5.72524C8.12563 5.72524 7.31957 6.26211 6.71302 7.32975C6.10848 8.39738 5.80621 10.1727 5.80621 12.6405Z" fill="black"/>
</g>
<defs>
<clipPath id="clip0_23_67">
<rect width="24.7619" height="27.8683" fill="white" transform="translate(0.857056 0.0637207)"/>
</clipPath>
</defs>
</svg>
