<svg width="26" height="23" viewBox="0 0 26 23" fill="none" xmlns="http://www.w3.org/2000/svg">
<g clip-path="url(#clip0_23_50)">
<path fill-rule="evenodd" clip-rule="evenodd" d="M6.93983 8.98167H14.4268V3.17253C14.4268 2.68606 14.005 2.24235 13.3271 1.9216C12.6492 1.60085 11.7114 1.40127 10.6833 1.40127C9.65517 1.40127 8.71742 1.60085 8.03953 1.9216C7.36163 2.24235 6.93983 2.68606 6.93983 3.17253V8.98167ZM19.0477 2.97651C18.5167 2.97651 18.0874 2.77337 18.0874 2.52212C18.0874 2.27086 18.5167 2.06772 19.0477 2.06772H24.373C24.904 2.06772 25.3333 2.27086 25.3333 2.52212C25.3333 2.77337 24.904 2.97651 24.373 2.97651H19.0477ZM19.0477 5.53717C18.5167 5.53717 18.0874 5.33403 18.0874 5.08277C18.0874 4.83152 18.5167 4.62838 19.0477 4.62838H24.373C24.904 4.62838 25.3333 4.83152 25.3333 5.08277C25.3333 5.33403 24.904 5.53717 24.373 5.53717H19.0477ZM19.0477 8.09783C18.5167 8.09783 18.0874 7.89469 18.0874 7.64343C18.0874 7.39218 18.5167 7.18904 19.0477 7.18904H24.373C24.904 7.18904 25.3333 7.39218 25.3333 7.64343C25.3333 7.89469 24.904 8.09783 24.373 8.09783H19.0477ZM19.0477 10.6585C18.5167 10.6585 18.0874 10.4553 18.0874 10.2041C18.0874 9.95283 18.5167 9.74969 19.0477 9.74969H24.373C24.904 9.74969 25.3333 9.95283 25.3333 10.2041C25.3333 10.4553 24.904 10.6585 24.373 10.6585H19.0477ZM19.0477 13.2191C18.5167 13.2191 18.0874 13.016 18.0874 12.7647C18.0874 12.5135 18.5167 12.3103 19.0477 12.3103H24.373C24.904 12.3103 25.3333 12.5135 25.3333 12.7647C25.3333 13.016 24.904 13.2191 24.373 13.2191H19.0477ZM16.3437 13.7609C18.931 14.618 20.622 16.04 20.622 17.6473C20.622 20.2667 16.1328 22.3908 10.5967 22.3908C5.06057 22.3908 0.571411 20.2667 0.571411 17.6473C0.571411 16.0043 2.3377 14.5556 5.0229 13.7056V3.17253C5.0229 2.4348 5.65937 1.76657 6.68374 1.2801C7.70811 0.795412 9.12415 0.494263 10.6833 0.494263C12.2425 0.494263 13.6547 0.795412 14.6829 1.2801C15.7072 1.76479 16.3437 2.4348 16.3437 3.17253V13.7609Z" fill="black"/>
</g>
<defs>
<clipPath id="clip0_23_50">
<rect width="24.7619" height="21.8966" fill="white" transform="translate(0.571411 0.494263)"/>
</clipPath>
</defs>
</svg>
